<?xml version="1.0" encoding="utf-8"?>
<svg viewBox="0 0 16 16" width="16px" height="16px" fill="none" xmlns="http://www.w3.org/2000/svg">
  <path d="M 18.91 38.08 C 10.947 38.08 18.21 26.492 18.21 34.782 C 18.21 43.073 11.498 34.041 19.461 34.041 C 27.424 34.041 19.239 43.106 19.239 34.816 C 19.239 26.525 26.873 38.08 18.91 38.08 Z M 15.873 2.854 L 14.594 4.131 C 14.484 4.218 14.429 4.362 14.452 4.504 L 14.452 13.885 C 14.429 14.027 14.484 14.171 14.594 14.258 L 15.843 15.535 L 15.843 15.815 L 9.561 15.815 L 9.561 15.535 L 10.855 14.227 C 10.981 14.094 10.981 14.056 10.981 13.854 L 10.981 6.272 L 7.384 15.784 L 6.898 15.784 L 2.709 6.272 L 2.709 12.647 C 2.675 12.915 2.76 13.185 2.942 13.379 L 4.625 15.504 L 4.625 15.784 L -0.147 15.784 L -0.147 15.504 L 1.535 13.379 C 1.715 13.185 1.796 12.913 1.753 12.647 L 1.753 5.275 C 1.772 5.07 1.697 4.868 1.551 4.73 L 0.055 2.854 L 0.055 2.574 L 4.699 2.574 L 8.289 10.771 L 11.445 2.574 L 15.873 2.574 L 15.873 2.854 Z" style="stroke: none; stroke-width: 1; stroke-dasharray: none; stroke-linecap: butt; stroke-linejoin: miter; stroke-miterlimit: 10; fill-rule: nonzero; opacity: 1; fill: rgb(255, 255, 255);" stroke-linecap="round" transform="matrix(0.9999999999999999, 0, 0, 0.9999999999999999, -1.7763568394002505e-15, -1.7763568394002505e-15)"/>
</svg>